# xmcd CD database file
#
# Track frame offsets:
#	150
#	17408
#	32346
#	58592
#	72899
#	91109
#	108000
#	122761
#	142366
#	158399
#	181261
#
# Disc length: 2660 seconds
#
# Revision: 1
# Processed by: cddbd v1.5.2PL0 Copyright (c) Steve Scherf et al.
# Submitted via: CDex 1.51
#
DISCID=7f0a620b
DTITLE=Lucky Peterson - Long Nights
DYEAR=2016
DGENRE=Blues
TTITLE0=Is It Me
TTITLE1=Waiting On You
TTITLE2=Long Nights
TTITLE3=Be Your Man
TTITLE4=Wasting My time
TTITLE5=Mad As A Man Can Be
TTITLE6=Never Coming Back
TTITLE7=Repo Man
TTITLE8=Six O'Clock Blues
TTITLE9=Erline
TTITLE10=Feeling They Call The Blues
EXTD=YEAR: 2016
EXTT0=
EXTT1=
EXTT2=
EXTT3=
EXTT4=
EXTT5=
EXTT6=
EXTT7=
EXTT8=
EXTT9=
EXTT10=
PLAYORDER=
